<svg width="121" height="27" viewBox="0 0 121 27" fill="none" xmlns="http://www.w3.org/2000/svg">
<path d="M41.992 19.2417H44.728V8.0097H41.992V19.2417ZM54.1828 15.8177C54.1828 16.6177 53.6547 17.0337 52.7428 17.0337H50.7267V14.5537H52.7108C53.6228 14.5537 54.1828 15.0177 54.1828 15.8177ZM53.9107 11.3857C53.9107 12.1537 53.4148 12.5537 52.5188 12.5537H50.7267V10.2017H52.5188C53.4148 10.2017 53.9107 10.6177 53.9107 11.3857ZM56.9508 16.1857C56.9508 14.9057 56.1027 13.7537 54.7908 13.4817C55.8787 13.1617 56.6947 12.2817 56.6947 10.9217C56.6947 9.1457 55.3348 8.0097 53.0468 8.0097H47.9907V19.2417H53.2228C55.5907 19.2417 56.9508 18.0417 56.9508 16.1857ZM59.8176 8.0097V19.2417H66.1376V17.1297H62.5536V8.0097H59.8176ZM68.7226 19.2417H71.4586V8.0097H68.7226V19.2417ZM82.4654 8.0097H74.5294V10.2497H79.3294L74.5294 17.1617V19.2417H82.4654V17.0017H77.6334L82.4654 10.0897V8.0097ZM90.2033 19.2417H92.9393V8.0097H90.2033V19.2417ZM103.514 8.0097V14.9697L98.938 8.0097H96.202V19.2417H98.938V12.3137L103.514 19.2417H106.25V8.0097H103.514ZM109.049 13.6097C109.049 16.9697 111.385 19.3217 114.697 19.3217C117.369 19.3217 119.385 17.8337 120.025 15.4017H117.017C116.553 16.3617 115.705 16.8417 114.665 16.8417C112.985 16.8417 111.833 15.5937 111.833 13.6097C111.833 11.6257 112.985 10.3777 114.665 10.3777C115.705 10.3777 116.553 10.8577 117.017 11.8177H120.025C119.385 9.3857 117.369 7.8817 114.697 7.8817C111.385 7.8817 109.049 10.2497 109.049 13.6097Z" fill="#303056"/>
<path fill-rule="evenodd" clip-rule="evenodd" d="M9.80071 0.865052C12.999 0.033915 16.3567 0.0339151 19.555 0.865052L20.0872 1.00337C25.6997 2.46187 29.4547 7.73954 28.9928 13.52L28.8965 14.7245C28.5973 18.469 26.2206 21.7283 22.7468 23.1579C22.3387 23.3258 21.9958 23.6212 21.7692 23.9999L20.9647 25.3447C20.6194 25.9218 20.0718 26.3498 19.4285 26.5455L19.3915 26.5567C19.2693 26.5939 19.1417 26.6101 19.014 26.6045C18.4062 26.5781 17.8905 26.1497 17.7532 25.557L17.726 25.4398C17.6067 24.9248 16.8761 24.9171 16.746 25.4295L16.7244 25.5144C16.5644 26.1447 16.0338 26.612 15.3883 26.6912L14.9537 26.7445C14.8043 26.7629 14.6532 26.7629 14.5037 26.7445L14.02 26.6852C13.4042 26.6096 12.8979 26.1637 12.7452 25.5624L12.7148 25.4428C12.5907 24.954 11.8901 24.9722 11.7916 25.4668L11.7759 25.5452C11.6572 26.1409 11.1469 26.5784 10.5401 26.6048C10.4158 26.6102 10.2916 26.5944 10.1726 26.5582L10.1235 26.5433C9.48319 26.3485 8.93391 25.9306 8.5754 25.3654L7.71572 24.01C7.47149 23.625 7.10793 23.3305 6.68058 23.1716C2.85868 21.7501 0.254222 18.1846 0.0624803 14.1115L0.0131487 13.0635C-0.248521 7.50489 3.42015 2.52316 8.80606 1.12353L9.80071 0.865052ZM7.34714 14.7491C9.50155 14.7491 11.2481 13.0026 11.2481 10.8481C11.2481 8.69373 9.50155 6.94723 7.34714 6.94723C5.19272 6.94723 3.44622 8.69373 3.44622 10.8481C3.44622 13.0026 5.19272 14.7491 7.34714 14.7491ZM22.0086 14.7491C24.163 14.7491 25.9095 13.0026 25.9095 10.8481C25.9095 8.69373 24.163 6.94723 22.0086 6.94723C19.8541 6.94723 18.1076 8.69373 18.1076 10.8481C18.1076 13.0026 19.8541 14.7491 22.0086 14.7491Z" fill="#303056"/>
</svg>
