<svg width="1097" height="879" viewBox="0 0 1097 879" fill="none" xmlns="http://www.w3.org/2000/svg">
<g filter="url(#filter0_f_2_116)">
<path d="M-27 -174H977.659L797.787 529.031L239.761 643.027L-27 -174Z" fill="url(#paint0_linear_2_116)"/>
</g>
<g filter="url(#filter1_f_2_116)">
<ellipse cx="480.673" cy="476.178" rx="292.135" ry="283.822" fill="url(#paint1_linear_2_116)"/>
</g>
<g opacity="0.4" filter="url(#filter2_f_2_116)">
<ellipse cx="480.673" cy="476.178" rx="267.79" ry="260.071" fill="url(#paint2_linear_2_116)"/>
</g>
<g opacity="0.3" filter="url(#filter3_f_2_116)">
<path d="M459.001 -114.029C478.595 129.713 375.576 296.266 353.31 62.3205C203.976 139.807 249.051 371 135.693 280.893C156.371 468.538 295.742 534.569 218.509 520.491C351.561 644.509 557.633 651.883 643.292 553.339C626.669 553.339 625.037 552.333 625.037 534.569C757.93 509.682 822.286 421.839 820.881 361.928C813.623 378.698 805.681 407.284 770 411.892C725.397 417.653 811.398 218.677 754.504 177.584C643.292 291.813 643.292 -2.69727 459.001 -114.029Z" fill="url(#paint3_linear_2_116)"/>
</g>
<g filter="url(#filter4_f_2_116)">
<path d="M554.792 42.1322C650.213 72.7112 652.292 321.127 706.573 190.589C743.443 297.798 672.185 464.249 768.058 379.501C750.569 555.986 632.696 618.09 698.016 604.85C585.487 721.491 411.2 728.427 338.754 635.744C352.813 635.744 354.193 634.798 354.193 618.09C241.798 594.684 187.369 512.065 188.557 455.716C194.696 471.489 201.413 498.375 231.591 502.709C269.313 508.128 196.577 320.985 244.696 282.336C291.566 460.781 264.251 225.606 376.186 162.872C399.939 321.112 577.173 183.048 554.792 42.1322Z" fill="url(#paint4_linear_2_116)"/>
</g>
<g filter="url(#filter5_f_2_116)">
<path d="M632.572 65.6481C651.256 213.267 505.733 158.497 528.175 -65.637C438.459 0.865204 390.074 113.318 344.997 157.027C317.734 183.462 231.962 161.777 271.37 65.6481C177.99 161.314 229.317 293.408 147.865 218.779C105.708 794.142 979.196 833.974 744.283 170.848C704.463 327.988 727.67 120.892 632.572 65.6481Z" fill="url(#paint5_radial_2_116)"/>
</g>
<g opacity="0.1" filter="url(#filter6_f_2_116)">
<path d="M487.874 27.288C401.131 51.0153 389.502 280.675 340.158 179.386C240.242 263.682 273.834 383.967 186.68 318.208C8.7525 808.617 1011.38 834.883 760.028 250.576C717.42 389.038 742.252 206.558 640.497 157.88C660.489 287.953 463.861 224.781 487.874 27.288Z" fill="url(#paint6_linear_2_116)"/>
</g>
<g filter="url(#filter7_f_2_116)">
<path d="M486.908 77.4616C416.711 98.6487 407.3 303.721 367.368 213.276C286.51 288.547 313.694 395.955 243.165 337.236C99.1759 775.141 910.563 798.595 707.151 276.844C672.67 400.483 692.765 237.538 610.419 194.072C626.598 310.219 467.475 253.811 486.908 77.4616Z" fill="url(#paint7_linear_2_116)"/>
</g>
<mask id="mask0_2_116" style="mask-type:alpha" maskUnits="userSpaceOnUse" x="254" y="266" width="458" height="419">
<path d="M562.258 276.45C511.871 263.356 458.975 263.356 408.589 276.45L392.919 280.522C308.069 302.572 250.273 381.054 254.395 468.625L255.172 485.134C258.193 549.303 299.224 605.474 359.434 627.868C366.166 630.372 371.894 635.011 375.742 641.077L389.285 662.429C394.933 671.333 403.586 677.917 413.674 680.986L414.447 681.221C416.322 681.791 418.279 682.039 420.237 681.954C429.796 681.539 437.835 674.647 439.706 665.262L439.952 664.026C441.505 656.235 452.542 655.948 454.498 663.648L454.976 665.533C457.382 675.006 465.358 682.031 475.06 683.221L482.68 684.156C485.034 684.445 487.415 684.445 489.769 684.156L496.616 683.316C506.784 682.068 515.143 674.706 517.665 664.777L518.005 663.439C520.055 655.367 531.565 655.488 533.444 663.602L533.872 665.448C536.036 674.785 544.159 681.535 553.735 681.951C555.746 682.038 557.757 681.783 559.683 681.198L560.264 681.021C570.4 677.937 579.027 671.194 584.466 662.103L597.14 640.917C600.71 634.951 606.112 630.298 612.542 627.652C667.268 605.13 704.71 553.783 709.425 494.792L710.941 475.816C718.219 384.751 659.062 301.606 570.643 278.629L562.258 276.45Z" fill="#FFF0D3"/>
</mask>
<g mask="url(#mask0_2_116)">
<g filter="url(#filter8_di_2_116)">
<path d="M562.258 276.45C511.871 263.356 458.975 263.356 408.589 276.45L392.919 280.522C308.069 302.572 250.273 381.054 254.395 468.625L255.172 485.134C258.193 549.303 299.224 605.474 359.434 627.868C366.166 630.372 371.894 635.011 375.742 641.077L389.285 662.429C394.933 671.333 403.586 677.917 413.674 680.986L414.447 681.221C416.322 681.791 418.279 682.039 420.237 681.954C429.796 681.539 437.835 674.647 439.706 665.262L439.952 664.026C441.505 656.235 452.542 655.948 454.498 663.648L454.976 665.533C457.382 675.006 465.358 682.031 475.06 683.221L482.68 684.156C485.034 684.445 487.415 684.445 489.769 684.156L496.616 683.316C506.784 682.068 515.143 674.706 517.665 664.777L518.005 663.439C520.055 655.367 531.565 655.488 533.444 663.602L533.872 665.448C536.036 674.785 544.159 681.535 553.735 681.951C555.746 682.038 557.757 681.783 559.683 681.198L560.264 681.021C570.4 677.937 579.027 671.194 584.466 662.103L597.14 640.917C600.71 634.951 606.112 630.298 612.542 627.652C667.268 605.13 704.71 553.783 709.425 494.792L710.941 475.816C718.219 384.751 659.062 301.606 570.643 278.629L562.258 276.45Z" fill="url(#paint8_radial_2_116)"/>
</g>
<g filter="url(#filter9_f_2_116)">
<ellipse cx="414.171" cy="283.797" rx="80.7527" ry="31.4698" fill="white"/>
</g>
<g filter="url(#filter10_f_2_116)">
<ellipse cx="414.171" cy="283.797" rx="51.658" ry="20.1882" fill="white"/>
</g>
<g opacity="0.4" filter="url(#filter11_f_2_116)">
<path d="M333.862 569.882C331.61 539.677 353.224 512.924 383.228 508.78L456.187 498.704C470.267 496.759 484.547 496.759 498.628 498.704L571.297 508.74C601.43 512.902 623.095 539.831 620.708 570.156C616.889 618.67 576.407 656.09 527.743 656.09H426.739C377.989 656.09 337.488 618.497 333.862 569.882Z" fill="url(#paint9_linear_2_116)"/>
</g>
<g filter="url(#filter12_dd_2_116)">
<circle cx="369.935" cy="433.723" r="61.4552" fill="url(#paint10_linear_2_116)"/>
</g>
<g filter="url(#filter13_dd_2_116)">
<circle cx="600.911" cy="433.724" r="61.4552" fill="url(#paint11_linear_2_116)"/>
</g>
<g filter="url(#filter14_f_2_116)">
<ellipse rx="55.1478" ry="12.5969" transform="matrix(0.771824 -0.635836 0.664722 0.747091 591.582 653.234)" fill="white"/>
</g>
<g filter="url(#filter15_f_2_116)">
<ellipse rx="18.8145" ry="6.67382" transform="matrix(0.771824 -0.635836 0.664722 0.747091 580.617 669.521)" fill="white"/>
</g>
<g filter="url(#filter16_f_2_116)">
<ellipse cx="512.958" cy="680.904" rx="27.6765" ry="14.1939" transform="rotate(-40.5683 512.958 680.904)" fill="white"/>
</g>
<g filter="url(#filter17_f_2_116)">
<ellipse cx="435.806" cy="684.43" rx="39.7783" ry="14.1939" transform="rotate(-40.5683 435.806 684.43)" fill="white"/>
</g>
</g>
<g filter="url(#filter18_f_2_116)">
<ellipse cx="461.673" cy="270.14" rx="96.7845" ry="54.0331" fill="url(#paint12_linear_2_116)"/>
</g>
<defs>
<filter id="filter0_f_2_116" x="-145.754" y="-292.754" width="1242.17" height="1054.54" filterUnits="userSpaceOnUse" color-interpolation-filters="sRGB">
<feFlood flood-opacity="0" result="BackgroundImageFix"/>
<feBlend mode="normal" in="SourceGraphic" in2="BackgroundImageFix" result="shape"/>
<feGaussianBlur stdDeviation="59.377" result="effect1_foregroundBlur_2_116"/>
</filter>
<filter id="filter1_f_2_116" x="69.7845" y="73.602" width="821.777" height="805.152" filterUnits="userSpaceOnUse" color-interpolation-filters="sRGB">
<feFlood flood-opacity="0" result="BackgroundImageFix"/>
<feBlend mode="normal" in="SourceGraphic" in2="BackgroundImageFix" result="shape"/>
<feGaussianBlur stdDeviation="59.377" result="effect1_foregroundBlur_2_116"/>
</filter>
<filter id="filter2_f_2_116" x="94.1291" y="97.353" width="773.088" height="757.65" filterUnits="userSpaceOnUse" color-interpolation-filters="sRGB">
<feFlood flood-opacity="0" result="BackgroundImageFix"/>
<feBlend mode="normal" in="SourceGraphic" in2="BackgroundImageFix" result="shape"/>
<feGaussianBlur stdDeviation="59.377" result="effect1_foregroundBlur_2_116"/>
</filter>
<filter id="filter3_f_2_116" x="22.8766" y="-226.845" width="910.843" height="960.72" filterUnits="userSpaceOnUse" color-interpolation-filters="sRGB">
<feFlood flood-opacity="0" result="BackgroundImageFix"/>
<feBlend mode="normal" in="SourceGraphic" in2="BackgroundImageFix" result="shape"/>
<feGaussianBlur stdDeviation="56.4081" result="effect1_foregroundBlur_2_116"/>
</filter>
<filter id="filter4_f_2_116" x="141.037" y="-5.36939" width="674.523" height="752.306" filterUnits="userSpaceOnUse" color-interpolation-filters="sRGB">
<feFlood flood-opacity="0" result="BackgroundImageFix"/>
<feBlend mode="normal" in="SourceGraphic" in2="BackgroundImageFix" result="shape"/>
<feGaussianBlur stdDeviation="23.7508" result="effect1_foregroundBlur_2_116"/>
</filter>
<filter id="filter5_f_2_116" x="119.972" y="-92.049" width="690.91" height="777.713" filterUnits="userSpaceOnUse" color-interpolation-filters="sRGB">
<feFlood flood-opacity="0" result="BackgroundImageFix"/>
<feBlend mode="normal" in="SourceGraphic" in2="BackgroundImageFix" result="shape"/>
<feGaussianBlur stdDeviation="13.206" result="effect1_foregroundBlur_2_116"/>
</filter>
<filter id="filter6_f_2_116" x="46.6274" y="-91.466" width="872.842" height="897.78" filterUnits="userSpaceOnUse" color-interpolation-filters="sRGB">
<feFlood flood-opacity="0" result="BackgroundImageFix"/>
<feBlend mode="normal" in="SourceGraphic" in2="BackgroundImageFix" result="shape"/>
<feGaussianBlur stdDeviation="59.377" result="effect1_foregroundBlur_2_116"/>
</filter>
<filter id="filter7_f_2_116" x="205.147" y="56.6797" width="555.712" height="631.147" filterUnits="userSpaceOnUse" color-interpolation-filters="sRGB">
<feFlood flood-opacity="0" result="BackgroundImageFix"/>
<feBlend mode="normal" in="SourceGraphic" in2="BackgroundImageFix" result="shape"/>
<feGaussianBlur stdDeviation="10.391" result="effect1_foregroundBlur_2_116"/>
</filter>
<filter id="filter8_di_2_116" x="234.593" y="251.579" width="487.64" height="441.107" filterUnits="userSpaceOnUse" color-interpolation-filters="sRGB">
<feFlood flood-opacity="0" result="BackgroundImageFix"/>
<feColorMatrix in="SourceAlpha" type="matrix" values="0 0 0 0 0 0 0 0 0 0 0 0 0 0 0 0 0 0 127 0" result="hardAlpha"/>
<feOffset dx="7.71901" dy="5.34393"/>
<feGaussianBlur stdDeviation="1.48442"/>
<feColorMatrix type="matrix" values="0 0 0 0 1 0 0 0 0 0 0 0 0 0 0.12 0 0 0 1 0"/>
<feBlend mode="normal" in2="BackgroundImageFix" result="effect1_dropShadow_2_116"/>
<feBlend mode="normal" in="SourceGraphic" in2="effect1_dropShadow_2_116" result="shape"/>
<feColorMatrix in="SourceAlpha" type="matrix" values="0 0 0 0 0 0 0 0 0 0 0 0 0 0 0 0 0 0 127 0" result="hardAlpha"/>
<feOffset dx="-19.5944" dy="-15.0507"/>
<feGaussianBlur stdDeviation="15.0507"/>
<feComposite in2="hardAlpha" operator="arithmetic" k2="-1" k3="1"/>
<feColorMatrix type="matrix" values="0 0 0 0 0 0 0 0 0 1 0 0 0 0 0.94 0 0 0 0.31 0"/>
<feBlend mode="normal" in2="shape" result="effect2_innerShadow_2_116"/>
</filter>
<filter id="filter9_f_2_116" x="274.041" y="192.95" width="280.259" height="181.694" filterUnits="userSpaceOnUse" color-interpolation-filters="sRGB">
<feFlood flood-opacity="0" result="BackgroundImageFix"/>
<feBlend mode="normal" in="SourceGraphic" in2="BackgroundImageFix" result="shape"/>
<feGaussianBlur stdDeviation="29.6885" result="effect1_foregroundBlur_2_116"/>
</filter>
<filter id="filter10_f_2_116" x="303.136" y="204.232" width="222.07" height="159.13" filterUnits="userSpaceOnUse" color-interpolation-filters="sRGB">
<feFlood flood-opacity="0" result="BackgroundImageFix"/>
<feBlend mode="normal" in="SourceGraphic" in2="BackgroundImageFix" result="shape"/>
<feGaussianBlur stdDeviation="29.6885" result="effect1_foregroundBlur_2_116"/>
</filter>
<filter id="filter11_f_2_116" x="244.636" y="408.18" width="465.317" height="336.976" filterUnits="userSpaceOnUse" color-interpolation-filters="sRGB">
<feFlood flood-opacity="0" result="BackgroundImageFix"/>
<feBlend mode="normal" in="SourceGraphic" in2="BackgroundImageFix" result="shape"/>
<feGaussianBlur stdDeviation="44.5327" result="effect1_foregroundBlur_2_116"/>
</filter>
<filter id="filter12_dd_2_116" x="276.084" y="353.212" width="201.039" height="204.851" filterUnits="userSpaceOnUse" color-interpolation-filters="sRGB">
<feFlood flood-opacity="0" result="BackgroundImageFix"/>
<feColorMatrix in="SourceAlpha" type="matrix" values="0 0 0 0 0 0 0 0 0 0 0 0 0 0 0 0 0 0 127 0" result="hardAlpha"/>
<feOffset dx="6.66956" dy="23.8198"/>
<feGaussianBlur stdDeviation="19.5323"/>
<feColorMatrix type="matrix" values="0 0 0 0 0.758333 0 0 0 0 0.408363 0 0 0 0 0.0853125 0 0 0 0.77 0"/>
<feBlend mode="normal" in2="BackgroundImageFix" result="effect1_dropShadow_2_116"/>
<feColorMatrix in="SourceAlpha" type="matrix" values="0 0 0 0 0 0 0 0 0 0 0 0 0 0 0 0 0 0 127 0" result="hardAlpha"/>
<feOffset dx="-4.76397" dy="-4.76397"/>
<feGaussianBlur stdDeviation="7.14595"/>
<feColorMatrix type="matrix" values="0 0 0 0 1 0 0 0 0 1 0 0 0 0 1 0 0 0 0.59 0"/>
<feBlend mode="normal" in2="effect1_dropShadow_2_116" result="effect2_dropShadow_2_116"/>
<feBlend mode="normal" in="SourceGraphic" in2="effect2_dropShadow_2_116" result="shape"/>
</filter>
<filter id="filter13_dd_2_116" x="493.722" y="353.212" width="201.039" height="204.851" filterUnits="userSpaceOnUse" color-interpolation-filters="sRGB">
<feFlood flood-opacity="0" result="BackgroundImageFix"/>
<feColorMatrix in="SourceAlpha" type="matrix" values="0 0 0 0 0 0 0 0 0 0 0 0 0 0 0 0 0 0 127 0" result="hardAlpha"/>
<feOffset dx="-6.66956" dy="23.8198"/>
<feGaussianBlur stdDeviation="19.5323"/>
<feColorMatrix type="matrix" values="0 0 0 0 0.758333 0 0 0 0 0.408363 0 0 0 0 0.0853125 0 0 0 0.77 0"/>
<feBlend mode="normal" in2="BackgroundImageFix" result="effect1_dropShadow_2_116"/>
<feColorMatrix in="SourceAlpha" type="matrix" values="0 0 0 0 0 0 0 0 0 0 0 0 0 0 0 0 0 0 127 0" result="hardAlpha"/>
<feOffset dx="4.76397" dy="-4.76397"/>
<feGaussianBlur stdDeviation="7.14595"/>
<feColorMatrix type="matrix" values="0 0 0 0 1 0 0 0 0 1 0 0 0 0 1 0 0 0 0.59 0"/>
<feBlend mode="normal" in2="effect1_dropShadow_2_116" result="effect2_dropShadow_2_116"/>
<feBlend mode="normal" in="SourceGraphic" in2="effect2_dropShadow_2_116" result="shape"/>
</filter>
<filter id="filter14_f_2_116" x="506.629" y="575.355" width="169.905" height="155.758" filterUnits="userSpaceOnUse" color-interpolation-filters="sRGB">
<feFlood flood-opacity="0" result="BackgroundImageFix"/>
<feBlend mode="normal" in="SourceGraphic" in2="BackgroundImageFix" result="shape"/>
<feGaussianBlur stdDeviation="20.7819" result="effect1_foregroundBlur_2_116"/>
</filter>
<filter id="filter15_f_2_116" x="541.678" y="632.807" width="77.8777" height="73.4292" filterUnits="userSpaceOnUse" color-interpolation-filters="sRGB">
<feFlood flood-opacity="0" result="BackgroundImageFix"/>
<feBlend mode="normal" in="SourceGraphic" in2="BackgroundImageFix" result="shape"/>
<feGaussianBlur stdDeviation="11.8754" result="effect1_foregroundBlur_2_116"/>
</filter>
<filter id="filter16_f_2_116" x="448.427" y="618.355" width="129.062" height="125.098" filterUnits="userSpaceOnUse" color-interpolation-filters="sRGB">
<feFlood flood-opacity="0" result="BackgroundImageFix"/>
<feBlend mode="normal" in="SourceGraphic" in2="BackgroundImageFix" result="shape"/>
<feGaussianBlur stdDeviation="20.7819" result="effect1_foregroundBlur_2_116"/>
</filter>
<filter id="filter17_f_2_116" x="362.638" y="614.832" width="146.335" height="139.196" filterUnits="userSpaceOnUse" color-interpolation-filters="sRGB">
<feFlood flood-opacity="0" result="BackgroundImageFix"/>
<feBlend mode="normal" in="SourceGraphic" in2="BackgroundImageFix" result="shape"/>
<feGaussianBlur stdDeviation="20.7819" result="effect1_foregroundBlur_2_116"/>
</filter>
<filter id="filter18_f_2_116" x="285.871" y="137.09" width="351.603" height="266.1" filterUnits="userSpaceOnUse" color-interpolation-filters="sRGB">
<feFlood flood-opacity="0" result="BackgroundImageFix"/>
<feBlend mode="normal" in="SourceGraphic" in2="BackgroundImageFix" result="shape"/>
<feGaussianBlur stdDeviation="39.5085" result="effect1_foregroundBlur_2_116"/>
</filter>
<linearGradient id="paint0_linear_2_116" x1="683.604" y1="-113.552" x2="542.262" y2="498.789" gradientUnits="userSpaceOnUse">
<stop stop-color="#B9FF8D" stop-opacity="0"/>
<stop offset="0.50718" stop-color="#46FF85" stop-opacity="0.12"/>
<stop offset="1" stop-color="#FFE600" stop-opacity="0"/>
</linearGradient>
<linearGradient id="paint1_linear_2_116" x1="480.673" y1="192.356" x2="480.673" y2="760" gradientUnits="userSpaceOnUse">
<stop stop-color="#50FF76" stop-opacity="0.38"/>
<stop offset="1" stop-color="#50FFA0" stop-opacity="0"/>
</linearGradient>
<linearGradient id="paint2_linear_2_116" x1="480.673" y1="216.107" x2="480.673" y2="460.38" gradientUnits="userSpaceOnUse">
<stop stop-color="#FFFACE"/>
<stop offset="1" stop-color="white" stop-opacity="0"/>
</linearGradient>
<linearGradient id="paint3_linear_2_116" x1="476.888" y1="-48.2373" x2="476.888" y2="639.652" gradientUnits="userSpaceOnUse">
<stop stop-color="#A6FFEA" stop-opacity="0.95"/>
<stop offset="1" stop-color="#F6EB4E" stop-opacity="0"/>
</linearGradient>
<linearGradient id="paint4_linear_2_116" x1="691.165" y1="130.01" x2="479.49" y2="716.924" gradientUnits="userSpaceOnUse">
<stop stop-color="#FFFBA0" stop-opacity="0.15"/>
<stop offset="1" stop-color="#3AFFE7" stop-opacity="0.06"/>
</linearGradient>
<radialGradient id="paint5_radial_2_116" cx="0" cy="0" r="1" gradientUnits="userSpaceOnUse" gradientTransform="translate(372.31 219.076) rotate(-0.802419) scale(211.997 343.368)">
<stop stop-color="#EDFFA4" stop-opacity="0.3"/>
<stop offset="1" stop-color="#B2FF50" stop-opacity="0"/>
</radialGradient>
<linearGradient id="paint6_linear_2_116" x1="758.617" y1="196.188" x2="444.744" y2="596.52" gradientUnits="userSpaceOnUse">
<stop stop-color="#301758"/>
<stop offset="1" stop-color="#301658"/>
</linearGradient>
<linearGradient id="paint7_linear_2_116" x1="706.009" y1="228.279" x2="420.406" y2="558.415" gradientUnits="userSpaceOnUse">
<stop stop-color="#EDFFA4" stop-opacity="0.3"/>
<stop offset="1" stop-color="#B2FF50" stop-opacity="0.17"/>
</linearGradient>
<radialGradient id="paint8_radial_2_116" cx="0" cy="0" r="1" gradientUnits="userSpaceOnUse" gradientTransform="translate(485.423 317.048) rotate(91.118) scale(380.382 307.409)">
<stop stop-color="#FFF0D3"/>
<stop offset="0.420971" stop-color="#FFED48" stop-opacity="0.990923"/>
<stop offset="0.829897" stop-color="#FFD643" stop-opacity="0.77"/>
<stop offset="1" stop-color="#C69F17"/>
</radialGradient>
<linearGradient id="paint9_linear_2_116" x1="477.407" y1="495.773" x2="477.407" y2="656.09" gradientUnits="userSpaceOnUse">
<stop stop-color="#9E4722"/>
<stop offset="1" stop-color="#BB391C" stop-opacity="0.87"/>
</linearGradient>
<linearGradient id="paint10_linear_2_116" x1="369.935" y1="381.083" x2="369.983" y2="506.073" gradientUnits="userSpaceOnUse">
<stop stop-color="#2E1E65"/>
<stop offset="1" stop-color="#11082F"/>
</linearGradient>
<linearGradient id="paint11_linear_2_116" x1="600.911" y1="381.083" x2="600.96" y2="506.073" gradientUnits="userSpaceOnUse">
<stop stop-color="#2E1E65"/>
<stop offset="1" stop-color="#11082F"/>
</linearGradient>
<linearGradient id="paint12_linear_2_116" x1="377.714" y1="238.989" x2="419.409" y2="332.451" gradientUnits="userSpaceOnUse">
<stop stop-color="white" stop-opacity="0.71"/>
<stop offset="1" stop-color="#FFFFF8" stop-opacity="0.7"/>
</linearGradient>
</defs>
</svg>
