<svg width="1070" height="1017" viewBox="0 0 1070 1017" fill="none" xmlns="http://www.w3.org/2000/svg">
<g filter="url(#filter0_f_11_94)">
<path d="M-53.6586 -35.7769H951L771.128 667.254L213.102 781.25L-53.6586 -35.7769Z" fill="url(#paint0_linear_11_94)"/>
</g>
<g filter="url(#filter1_f_11_94)">
<ellipse cx="454.015" cy="614.401" rx="292.135" ry="283.822" fill="url(#paint1_linear_11_94)"/>
</g>
<g opacity="0.4" filter="url(#filter2_f_11_94)">
<ellipse cx="454.015" cy="614.401" rx="267.79" ry="260.071" fill="url(#paint2_linear_11_94)"/>
</g>
<g opacity="0.3" filter="url(#filter3_f_11_94)">
<path d="M389.244 107.223C369.65 350.966 472.669 517.518 494.935 283.573C644.268 361.06 599.194 592.252 712.552 502.145C669.777 890.309 184.195 859.735 42.3128 612.945C34.8502 603.075 31.0203 591.628 27.3639 583.18C31.7961 593.421 36.7945 603.346 42.3128 612.945C49.6636 622.667 60.539 630.858 78.2452 633.144C122.847 638.905 36.8462 439.929 93.7404 398.836C204.953 513.065 204.953 218.555 389.244 107.223Z" fill="url(#paint3_linear_11_94)"/>
</g>
<g filter="url(#filter4_f_11_94)">
<path d="M528.134 180.355C623.555 210.935 625.633 459.35 679.915 328.812C716.785 436.022 645.526 602.472 741.399 517.725C723.911 694.21 606.037 756.313 671.357 743.073C558.828 859.715 384.542 866.65 312.095 773.967C326.155 773.967 327.535 773.021 327.535 756.313C215.14 732.907 160.711 650.288 161.899 593.94C168.037 609.712 174.754 636.598 204.932 640.933C242.654 646.351 169.919 459.209 218.037 420.559C264.908 599.005 237.592 363.83 349.527 301.095C373.28 459.335 550.515 321.271 528.134 180.355Z" fill="url(#paint4_linear_11_94)"/>
</g>
<g opacity="0.3" filter="url(#filter5_f_11_94)">
<path d="M390.517 -55.7769C486.225 -25.2674 499.056 270.037 553.501 139.796C663.744 248.186 626.68 402.853 722.841 318.298C919.159 948.882 -187.103 982.656 90.2334 231.334C137.245 409.374 109.847 174.734 222.119 112.142C200.06 279.395 417.012 198.167 390.517 -55.7769Z" fill="url(#paint5_linear_11_94)"/>
</g>
<g filter="url(#filter6_f_11_94)">
<path d="M238.786 207.026C209.942 360.854 367.021 297.472 357.149 66.2231C447.802 131.056 491.966 245.389 536.879 288.632C564.042 314.787 655.971 288.41 620.281 190.585C713.004 285.474 650.642 424.699 741.276 343.653C750.298 937.984 -20.6587 898.723 114.306 321.13C146.667 482.162 134.935 268.604 238.786 207.026Z" fill="url(#paint6_radial_11_94)"/>
</g>
<g filter="url(#filter7_f_11_94)">
<path d="M390.841 218.223C459.516 238.952 508.007 388.586 547.073 300.099C626.178 373.741 601.479 515.999 670.479 458.551C811.346 886.981 17.552 909.927 216.554 399.467C246.841 629.723 243.281 375.749 323.841 333.223C335.341 458.551 459.341 343.723 390.841 218.223Z" fill="url(#paint7_linear_11_94)"/>
</g>
<g opacity="0.6" filter="url(#filter8_f_11_94)">
<ellipse cx="456.341" cy="768.723" rx="183" ry="32.5" fill="url(#paint8_linear_11_94)"/>
</g>
<g filter="url(#filter9_i_11_94)">
<path d="M437.784 401.311C437.163 423.888 415.61 441.007 404.911 446.744C437.163 456.306 501.266 469.693 499.653 446.744C497.637 418.058 489.109 382.394 463.989 353.087C442.999 328.599 397.778 321.765 368.781 342.543C345.584 359.166 345.057 394.437 347.693 409.995L392.661 396.659C383.667 386.115 387.544 362.856 404.911 360.53C422.278 358.204 438.559 373.09 437.784 401.311Z" fill="url(#paint9_radial_11_94)"/>
</g>
<g opacity="0.9" filter="url(#filter10_f_11_94)">
<path d="M479.185 434.34C480.219 423.744 479.185 395.884 466.78 369.214C476.291 381.67 492.086 412.135 479.185 434.34Z" fill="#E33F08"/>
</g>
<g opacity="0.4" filter="url(#filter11_f_11_94)">
<path d="M437.423 405.523C437.622 404.142 437.744 402.737 437.783 401.311C438.559 373.09 422.277 358.204 404.91 360.53C387.544 362.856 383.667 386.115 392.661 396.659L373.15 402.445C371.618 388.526 373.178 366.453 388.629 357.118C410.958 343.628 437.318 357.428 441.195 382.859C442.491 391.36 440.619 399.056 437.423 405.523Z" fill="url(#paint10_linear_11_94)"/>
</g>
<g opacity="0.5" filter="url(#filter12_f_11_94)">
<path d="M471.665 362.936C477.769 378.784 484.025 400.275 482.596 416.352C480.115 444.263 462.128 428.602 459.647 408.909C459.526 407.943 459.403 406.929 459.276 405.873C456.803 385.386 452.413 349.016 414.369 342.233C374.363 335.1 362.734 376.036 362.734 385.96C362.734 395.884 368.006 396.814 369.712 389.682C369.85 389.102 370.005 388.361 370.188 387.489C372.251 377.619 377.833 350.916 403.05 350.916C430.496 350.916 441.35 370.609 446.777 385.96C451.629 399.685 450.532 422.087 424.646 430.89C417.946 438.428 410.135 443.943 404.911 446.744C437.163 456.306 501.266 469.693 499.653 446.744C497.858 421.202 490.9 390.129 471.665 362.936Z" fill="url(#paint11_linear_11_94)"/>
</g>
<g opacity="0.6" filter="url(#filter13_f_11_94)">
<path d="M450.964 381.153C445.134 357.46 424.397 348.797 415.92 347.195C477.48 354.328 460.423 437.906 453.29 449.225C446.157 460.545 428.635 463.026 435.923 449.225C443.211 435.425 458.252 410.77 450.964 381.153Z" fill="#E33F08"/>
</g>
<g filter="url(#filter14_d_11_94)">
<mask id="mask0_11_94" style="mask-type:alpha" maskUnits="userSpaceOnUse" x="240" y="443" width="441" height="319">
<path d="M537.325 761.519H386.751C363.362 761.519 351.667 761.519 342.82 760.192C276.362 750.222 231.065 687.596 242.403 621.357C243.912 612.54 247.573 601.433 254.895 579.22L254.896 579.219C260.73 561.519 263.647 552.669 267.071 544.943C292.025 488.631 345.324 450.081 406.618 444.011C415.027 443.178 424.346 443.178 442.983 443.178H480.736C499.022 443.178 508.165 443.178 516.341 443.965C581.092 450.197 636.705 492.613 659.841 553.41C662.762 561.086 665.18 569.903 670.016 587.537L670.016 587.539C675.533 607.654 678.291 617.712 679.363 625.771C688.081 691.284 642.153 751.502 576.668 760.422C568.612 761.519 558.183 761.519 537.325 761.519Z" fill="#FF7F0A"/>
</mask>
<g mask="url(#mask0_11_94)">
<g filter="url(#filter15_i_11_94)">
<path d="M537.325 761.519H386.751C363.362 761.519 351.667 761.519 342.82 760.192C276.362 750.222 231.065 687.596 242.403 621.357C243.912 612.54 247.573 601.433 254.895 579.22L254.896 579.219C260.73 561.519 263.647 552.669 267.071 544.943C292.025 488.631 345.324 450.081 406.618 444.011C415.027 443.178 424.346 443.178 442.983 443.178H480.736C499.022 443.178 508.165 443.178 516.341 443.965C581.092 450.197 636.705 492.613 659.841 553.41C662.762 561.086 665.18 569.903 670.016 587.537L670.016 587.539C675.533 607.654 678.291 617.712 679.363 625.771C688.081 691.284 642.153 751.502 576.668 760.422C568.612 761.519 558.183 761.519 537.325 761.519Z" fill="url(#paint12_radial_11_94)"/>
</g>
<g filter="url(#filter16_ddi_11_94)">
<path d="M347.693 509.86C329.293 556.656 317.812 611.869 330.871 675.62C337.345 707.223 340.582 723.024 359.248 740.34C361.209 742.159 364.877 745.151 367.053 746.707C387.762 761.519 409.799 761.519 455.993 761.519C500.068 761.519 525.019 761.519 545.729 746.707C547.904 745.151 551.572 742.159 553.533 740.34C572.199 723.024 575.436 707.223 581.91 675.62C594.97 611.869 583.489 556.656 565.089 509.86C561.26 500.122 559.346 495.254 554.589 487.694C542.016 467.713 514.886 449.228 491.689 444.838C482.913 443.178 471.997 443.178 455.993 443.178C437.87 443.178 429.868 443.178 421.093 444.838C397.896 449.228 370.765 467.713 358.192 487.694C353.436 495.254 351.521 500.122 347.693 509.86Z" fill="url(#paint13_radial_11_94)"/>
</g>
<g filter="url(#filter17_f_11_94)">
<ellipse cx="449.186" cy="513.742" rx="151.068" ry="54.4623" transform="rotate(1.0527 449.186 513.742)" fill="url(#paint14_linear_11_94)"/>
</g>
<g filter="url(#filter18_f_11_94)">
<ellipse cx="410.387" cy="528.696" rx="81.4038" ry="28.2212" transform="rotate(-71.0877 410.387 528.696)" fill="url(#paint15_linear_11_94)"/>
</g>
<g opacity="0.8" filter="url(#filter19_f_11_94)">
<path d="M370.464 757.395C251.014 735.314 249.975 629.668 251.014 583.974L196.973 620.475L209.743 763.884L370.464 826.18C411.319 815.364 471.03 775.986 370.464 757.395Z" fill="#FFE600"/>
</g>
<g opacity="0.5" filter="url(#filter20_f_11_94)">
<path d="M656.265 606.303H263.339C260.032 622.016 262.378 666.218 298.228 717.327C343.041 781.212 551.754 778.731 618.895 728.026C672.609 687.462 666.189 629.975 656.265 606.303Z" fill="url(#paint16_linear_11_94)"/>
</g>
<g filter="url(#filter21_f_11_94)">
<path d="M337.053 607.383C336.428 676.707 352.1 718.136 370.467 746.223C308.72 711.912 305.203 593.978 332.95 531.739C355.148 481.949 387.793 458.649 401.341 453.223C386.881 465.033 337.835 520.728 337.053 607.383Z" fill="#EC6830"/>
</g>
<g opacity="0.2" filter="url(#filter22_iif_11_94)">
<path d="M595.105 613.439C595.764 693.555 542.196 730.455 522.847 762.914C675.918 762.914 666.219 603.005 636.99 531.077C613.607 473.536 558.076 430.656 475.464 439.334C490.696 452.982 594.282 513.294 595.105 613.439Z" fill="#511F0E"/>
</g>
<g filter="url(#filter23_f_11_94)">
<path d="M579.698 609.616C580.277 677.488 565.754 718.049 548.732 745.548C620.77 711.058 614.282 595.521 588.568 534.586C567.997 485.838 532.676 463.996 520.121 458.684C533.521 470.246 578.973 524.775 579.698 609.616Z" fill="#67B108" fill-opacity="0.83"/>
</g>
</g>
</g>
<circle cx="370.692" cy="547.639" r="59.4876" fill="url(#paint17_linear_11_94)"/>
<path d="M420.347 514.868C411.477 507.757 400.216 503.503 387.963 503.503C359.348 503.503 336.151 526.7 336.151 555.315C336.151 581.092 354.976 602.473 379.629 606.46C376.714 606.899 373.729 607.127 370.692 607.127C337.838 607.127 311.204 580.493 311.204 547.639C311.204 514.785 337.838 488.151 370.692 488.151C391.437 488.151 409.701 498.77 420.347 514.868Z" fill="url(#paint18_linear_11_94)"/>
<circle r="59.4876" transform="matrix(-1 0 0 1 541.766 547.64)" fill="url(#paint19_linear_11_94)"/>
<path d="M492.111 514.868C500.982 507.756 512.242 503.502 524.496 503.502C553.111 503.502 576.308 526.699 576.308 555.314C576.308 581.092 557.482 602.473 532.83 606.459C535.745 606.898 538.729 607.126 541.767 607.126C574.621 607.126 601.254 580.493 601.254 547.638C601.254 514.784 574.621 488.151 541.767 488.151C521.022 488.151 502.757 498.769 492.111 514.868Z" fill="url(#paint20_linear_11_94)"/>
<path d="M441.845 581.665C447.254 570.919 449.958 565.546 453.963 564.548C455.39 564.193 456.882 564.193 458.309 564.548C462.314 565.546 465.019 570.919 470.428 581.665C474.965 590.68 477.234 595.187 476.023 598.755C475.587 600.039 474.867 601.207 473.917 602.173C471.274 604.859 466.228 604.859 456.136 604.859C446.044 604.859 440.998 604.859 438.355 602.173C437.405 601.207 436.685 600.039 436.25 598.755C435.039 595.187 437.307 590.68 441.845 581.665Z" fill="url(#paint21_linear_11_94)"/>
<path d="M446.022 588.681C448.763 582.966 450.133 580.108 451.822 578.938C454.477 577.1 457.994 577.1 460.649 578.938C462.338 580.108 463.709 582.966 466.449 588.681C468.616 593.199 469.699 595.457 469.666 597.293C469.614 600.175 467.967 602.79 465.392 604.083C463.75 604.907 461.245 604.907 456.236 604.907C451.226 604.907 448.721 604.907 447.08 604.083C444.504 602.79 442.858 600.175 442.806 597.293C442.772 595.457 443.856 593.199 446.022 588.681Z" fill="url(#paint22_linear_11_94)"/>
<path d="M384.752 688.33V640.726H527.409V688.33C539.956 685.531 565.872 672.201 578.194 640.726H605.715C582.021 725.948 510.197 736.399 456.08 736.399C401.964 736.399 330.139 725.948 306.446 640.726H333.966C346.289 672.201 372.205 685.531 384.752 688.33Z" fill="url(#paint23_linear_11_94)"/>
<path d="M384.752 688.253H396.874V640.726H384.752V688.253Z" fill="url(#paint24_linear_11_94)"/>
<path d="M515.286 640.726V688.253H527.409V640.726H515.286Z" fill="url(#paint25_linear_11_94)"/>
<path d="M580.285 640.726C556.405 721.513 501 721.513 456.08 721.513C411.161 721.513 349.088 707.802 331.876 640.726H306.446C330.139 725.948 401.964 736.399 456.08 736.399C510.197 736.399 582.021 725.948 605.715 640.726H580.285Z" fill="url(#paint26_linear_11_94)"/>
<g opacity="0.2" filter="url(#filter24_f_11_94)">
<ellipse cx="544.006" cy="548.778" rx="68.4894" ry="66.1677" transform="rotate(-113.587 544.006 548.778)" fill="#8EA826"/>
</g>
<defs>
<filter id="filter0_f_11_94" x="-172.413" y="-154.531" width="1242.17" height="1054.54" filterUnits="userSpaceOnUse" color-interpolation-filters="sRGB">
<feFlood flood-opacity="0" result="BackgroundImageFix"/>
<feBlend mode="normal" in="SourceGraphic" in2="BackgroundImageFix" result="shape"/>
<feGaussianBlur stdDeviation="59.377" result="effect1_foregroundBlur_11_94"/>
</filter>
<filter id="filter1_f_11_94" x="43.1259" y="211.825" width="821.777" height="805.152" filterUnits="userSpaceOnUse" color-interpolation-filters="sRGB">
<feFlood flood-opacity="0" result="BackgroundImageFix"/>
<feBlend mode="normal" in="SourceGraphic" in2="BackgroundImageFix" result="shape"/>
<feGaussianBlur stdDeviation="59.377" result="effect1_foregroundBlur_11_94"/>
</filter>
<filter id="filter2_f_11_94" x="67.4705" y="235.576" width="773.088" height="757.651" filterUnits="userSpaceOnUse" color-interpolation-filters="sRGB">
<feFlood flood-opacity="0" result="BackgroundImageFix"/>
<feBlend mode="normal" in="SourceGraphic" in2="BackgroundImageFix" result="shape"/>
<feGaussianBlur stdDeviation="59.377" result="effect1_foregroundBlur_11_94"/>
</filter>
<filter id="filter3_f_11_94" x="-85.4524" y="-5.59313" width="910.821" height="915.019" filterUnits="userSpaceOnUse" color-interpolation-filters="sRGB">
<feFlood flood-opacity="0" result="BackgroundImageFix"/>
<feBlend mode="normal" in="SourceGraphic" in2="BackgroundImageFix" result="shape"/>
<feGaussianBlur stdDeviation="56.4081" result="effect1_foregroundBlur_11_94"/>
</filter>
<filter id="filter4_f_11_94" x="114.378" y="132.854" width="674.523" height="752.306" filterUnits="userSpaceOnUse" color-interpolation-filters="sRGB">
<feFlood flood-opacity="0" result="BackgroundImageFix"/>
<feBlend mode="normal" in="SourceGraphic" in2="BackgroundImageFix" result="shape"/>
<feGaussianBlur stdDeviation="23.7508" result="effect1_foregroundBlur_11_94"/>
</filter>
<filter id="filter5_f_11_94" x="-0.160152" y="-101.278" width="792.003" height="940.003" filterUnits="userSpaceOnUse" color-interpolation-filters="sRGB">
<feFlood flood-opacity="0" result="BackgroundImageFix"/>
<feBlend mode="normal" in="SourceGraphic" in2="BackgroundImageFix" result="shape"/>
<feGaussianBlur stdDeviation="22.7507" result="effect1_foregroundBlur_11_94"/>
</filter>
<filter id="filter6_f_11_94" x="73.4441" y="41.2231" width="692.91" height="755.945" filterUnits="userSpaceOnUse" color-interpolation-filters="sRGB">
<feFlood flood-opacity="0" result="BackgroundImageFix"/>
<feBlend mode="normal" in="SourceGraphic" in2="BackgroundImageFix" result="shape"/>
<feGaussianBlur stdDeviation="12.5" result="effect1_foregroundBlur_11_94"/>
</filter>
<filter id="filter7_f_11_94" x="139.341" y="173.223" width="593" height="653" filterUnits="userSpaceOnUse" color-interpolation-filters="sRGB">
<feFlood flood-opacity="0" result="BackgroundImageFix"/>
<feBlend mode="normal" in="SourceGraphic" in2="BackgroundImageFix" result="shape"/>
<feGaussianBlur stdDeviation="22.5" result="effect1_foregroundBlur_11_94"/>
</filter>
<filter id="filter8_f_11_94" x="233.413" y="696.295" width="445.856" height="144.856" filterUnits="userSpaceOnUse" color-interpolation-filters="sRGB">
<feFlood flood-opacity="0" result="BackgroundImageFix"/>
<feBlend mode="normal" in="SourceGraphic" in2="BackgroundImageFix" result="shape"/>
<feGaussianBlur stdDeviation="19.9641" result="effect1_foregroundBlur_11_94"/>
</filter>
<filter id="filter9_i_11_94" x="336.377" y="322.362" width="163.306" height="137.053" filterUnits="userSpaceOnUse" color-interpolation-filters="sRGB">
<feFlood flood-opacity="0" result="BackgroundImageFix"/>
<feBlend mode="normal" in="SourceGraphic" in2="BackgroundImageFix" result="shape"/>
<feColorMatrix in="SourceAlpha" type="matrix" values="0 0 0 0 0 0 0 0 0 0 0 0 0 0 0 0 0 0 127 0" result="hardAlpha"/>
<feOffset dx="-10.2341" dy="-7.86089"/>
<feGaussianBlur stdDeviation="14.2657"/>
<feComposite in2="hardAlpha" operator="arithmetic" k2="-1" k3="1"/>
<feColorMatrix type="matrix" values="0 0 0 0 0.68 0 0 0 0 1 0 0 0 0 0 0 0 0 0.31 0"/>
<feBlend mode="normal" in2="shape" result="effect1_innerShadow_11_94"/>
</filter>
<filter id="filter10_f_11_94" x="457.787" y="360.22" width="35.2546" height="83.1131" filterUnits="userSpaceOnUse" color-interpolation-filters="sRGB">
<feFlood flood-opacity="0" result="BackgroundImageFix"/>
<feBlend mode="normal" in="SourceGraphic" in2="BackgroundImageFix" result="shape"/>
<feGaussianBlur stdDeviation="4.49678" result="effect1_foregroundBlur_11_94"/>
</filter>
<filter id="filter11_f_11_94" x="358.42" y="337.585" width="97.4556" height="82.2037" filterUnits="userSpaceOnUse" color-interpolation-filters="sRGB">
<feFlood flood-opacity="0" result="BackgroundImageFix"/>
<feBlend mode="normal" in="SourceGraphic" in2="BackgroundImageFix" result="shape"/>
<feGaussianBlur stdDeviation="7.13283" result="effect1_foregroundBlur_11_94"/>
</filter>
<filter id="filter12_f_11_94" x="348.468" y="327.138" width="165.48" height="146.544" filterUnits="userSpaceOnUse" color-interpolation-filters="sRGB">
<feFlood flood-opacity="0" result="BackgroundImageFix"/>
<feBlend mode="normal" in="SourceGraphic" in2="BackgroundImageFix" result="shape"/>
<feGaussianBlur stdDeviation="7.13283" result="effect1_foregroundBlur_11_94"/>
</filter>
<filter id="filter13_f_11_94" x="402.895" y="334.17" width="71.1001" height="137.523" filterUnits="userSpaceOnUse" color-interpolation-filters="sRGB">
<feFlood flood-opacity="0" result="BackgroundImageFix"/>
<feBlend mode="normal" in="SourceGraphic" in2="BackgroundImageFix" result="shape"/>
<feGaussianBlur stdDeviation="6.51258" result="effect1_foregroundBlur_11_94"/>
</filter>
<filter id="filter14_d_11_94" x="195.695" y="399.45" width="529.697" height="408.277" filterUnits="userSpaceOnUse" color-interpolation-filters="sRGB">
<feFlood flood-opacity="0" result="BackgroundImageFix"/>
<feColorMatrix in="SourceAlpha" type="matrix" values="0 0 0 0 0 0 0 0 0 0 0 0 0 0 0 0 0 0 127 0" result="hardAlpha"/>
<feOffset dy="1.24049"/>
<feGaussianBlur stdDeviation="22.4839"/>
<feColorMatrix type="matrix" values="0 0 0 0 1 0 0 0 0 0.54 0 0 0 0 0 0 0 0 0.5 0"/>
<feBlend mode="normal" in2="BackgroundImageFix" result="effect1_dropShadow_11_94"/>
<feBlend mode="normal" in="SourceGraphic" in2="effect1_dropShadow_11_94" result="shape"/>
</filter>
<filter id="filter15_i_11_94" x="212.442" y="418.058" width="467.983" height="343.461" filterUnits="userSpaceOnUse" color-interpolation-filters="sRGB">
<feFlood flood-opacity="0" result="BackgroundImageFix"/>
<feBlend mode="normal" in="SourceGraphic" in2="BackgroundImageFix" result="shape"/>
<feColorMatrix in="SourceAlpha" type="matrix" values="0 0 0 0 0 0 0 0 0 0 0 0 0 0 0 0 0 0 127 0" result="hardAlpha"/>
<feOffset dx="-30.0819" dy="-25.12"/>
<feGaussianBlur stdDeviation="14.1106"/>
<feComposite in2="hardAlpha" operator="arithmetic" k2="-1" k3="1"/>
<feColorMatrix type="matrix" values="0 0 0 0 0.0599132 0 0 0 0 0.845833 0 0 0 0 0.138505 0 0 0 0.81 0"/>
<feBlend mode="normal" in2="shape" result="effect1_innerShadow_11_94"/>
</filter>
<filter id="filter16_ddi_11_94" x="263.553" y="417.127" width="325.201" height="363.619" filterUnits="userSpaceOnUse" color-interpolation-filters="sRGB">
<feFlood flood-opacity="0" result="BackgroundImageFix"/>
<feColorMatrix in="SourceAlpha" type="matrix" values="0 0 0 0 0 0 0 0 0 0 0 0 0 0 0 0 0 0 127 0" result="hardAlpha"/>
<feOffset dx="-39.0755" dy="-3.41135"/>
<feGaussianBlur stdDeviation="11.3195"/>
<feColorMatrix type="matrix" values="0 0 0 0 1 0 0 0 0 0.54 0 0 0 0 0 0 0 0 1 0"/>
<feBlend mode="normal" in2="BackgroundImageFix" result="effect1_dropShadow_11_94"/>
<feColorMatrix in="SourceAlpha" type="matrix" values="0 0 0 0 0 0 0 0 0 0 0 0 0 0 0 0 0 0 127 0" result="hardAlpha"/>
<feOffset dy="1.24049"/>
<feGaussianBlur stdDeviation="0.620246"/>
<feColorMatrix type="matrix" values="0 0 0 0 0 0 0 0 0 0 0 0 0 0 0 0 0 0 0.25 0"/>
<feBlend mode="normal" in2="effect1_dropShadow_11_94" result="effect2_dropShadow_11_94"/>
<feBlend mode="normal" in="SourceGraphic" in2="effect2_dropShadow_11_94" result="shape"/>
<feColorMatrix in="SourceAlpha" type="matrix" values="0 0 0 0 0 0 0 0 0 0 0 0 0 0 0 0 0 0 127 0" result="hardAlpha"/>
<feOffset dx="-26.0503" dy="-10.2341"/>
<feGaussianBlur stdDeviation="7.86089"/>
<feComposite in2="hardAlpha" operator="arithmetic" k2="-1" k3="1"/>
<feColorMatrix type="matrix" values="0 0 0 0 0.933375 0 0 0 0 0.95 0 0 0 0 0.11875 0 0 0 0.75 0"/>
<feBlend mode="normal" in2="shape" result="effect3_innerShadow_11_94"/>
</filter>
<filter id="filter17_f_11_94" x="256.87" y="417.947" width="384.632" height="191.59" filterUnits="userSpaceOnUse" color-interpolation-filters="sRGB">
<feFlood flood-opacity="0" result="BackgroundImageFix"/>
<feBlend mode="normal" in="SourceGraphic" in2="BackgroundImageFix" result="shape"/>
<feGaussianBlur stdDeviation="20.6351" result="effect1_foregroundBlur_11_94"/>
</filter>
<filter id="filter18_f_11_94" x="331.581" y="409.867" width="157.611" height="237.657" filterUnits="userSpaceOnUse" color-interpolation-filters="sRGB">
<feFlood flood-opacity="0" result="BackgroundImageFix"/>
<feBlend mode="normal" in="SourceGraphic" in2="BackgroundImageFix" result="shape"/>
<feGaussianBlur stdDeviation="20.6351" result="effect1_foregroundBlur_11_94"/>
</filter>
<filter id="filter19_f_11_94" x="180.847" y="567.847" width="260.963" height="274.459" filterUnits="userSpaceOnUse" color-interpolation-filters="sRGB">
<feFlood flood-opacity="0" result="BackgroundImageFix"/>
<feBlend mode="normal" in="SourceGraphic" in2="BackgroundImageFix" result="shape"/>
<feGaussianBlur stdDeviation="8.06319" result="effect1_foregroundBlur_11_94"/>
</filter>
<filter id="filter20_f_11_94" x="215.737" y="559.784" width="493.76" height="252.437" filterUnits="userSpaceOnUse" color-interpolation-filters="sRGB">
<feFlood flood-opacity="0" result="BackgroundImageFix"/>
<feBlend mode="normal" in="SourceGraphic" in2="BackgroundImageFix" result="shape"/>
<feGaussianBlur stdDeviation="23.2592" result="effect1_foregroundBlur_11_94"/>
</filter>
<filter id="filter21_f_11_94" x="303.316" y="440.198" width="111.05" height="319.05" filterUnits="userSpaceOnUse" color-interpolation-filters="sRGB">
<feFlood flood-opacity="0" result="BackgroundImageFix"/>
<feBlend mode="normal" in="SourceGraphic" in2="BackgroundImageFix" result="shape"/>
<feGaussianBlur stdDeviation="6.51258" result="effect1_foregroundBlur_11_94"/>
</filter>
<filter id="filter22_iif_11_94" x="460.888" y="423.64" width="208.092" height="353.85" filterUnits="userSpaceOnUse" color-interpolation-filters="sRGB">
<feFlood flood-opacity="0" result="BackgroundImageFix"/>
<feBlend mode="normal" in="SourceGraphic" in2="BackgroundImageFix" result="shape"/>
<feColorMatrix in="SourceAlpha" type="matrix" values="0 0 0 0 0 0 0 0 0 0 0 0 0 0 0 0 0 0 127 0" result="hardAlpha"/>
<feOffset dy="1.24049"/>
<feGaussianBlur stdDeviation="0.620246"/>
<feComposite in2="hardAlpha" operator="arithmetic" k2="-1" k3="1"/>
<feColorMatrix type="matrix" values="0 0 0 0 0.425 0 0 0 0 0.189267 0 0 0 0 0.0566667 0 0 0 0.5 0"/>
<feBlend mode="normal" in2="shape" result="effect1_innerShadow_11_94"/>
<feColorMatrix in="SourceAlpha" type="matrix" values="0 0 0 0 0 0 0 0 0 0 0 0 0 0 0 0 0 0 127 0" result="hardAlpha"/>
<feOffset dx="21.0884" dy="6.51258"/>
<feGaussianBlur stdDeviation="0.620246"/>
<feComposite in2="hardAlpha" operator="arithmetic" k2="-1" k3="1"/>
<feColorMatrix type="matrix" values="0 0 0 0 0 0 0 0 0 0 0 0 0 0 0 0 0 0 0.25 0"/>
<feBlend mode="normal" in2="effect1_innerShadow_11_94" result="effect2_innerShadow_11_94"/>
<feGaussianBlur stdDeviation="7.28789" result="effect3_foregroundBlur_11_94"/>
</filter>
<filter id="filter23_f_11_94" x="507.096" y="445.659" width="112.343" height="312.914" filterUnits="userSpaceOnUse" color-interpolation-filters="sRGB">
<feFlood flood-opacity="0" result="BackgroundImageFix"/>
<feBlend mode="normal" in="SourceGraphic" in2="BackgroundImageFix" result="shape"/>
<feGaussianBlur stdDeviation="6.51258" result="effect1_foregroundBlur_11_94"/>
</filter>
<filter id="filter24_f_11_94" x="453.611" y="456.804" width="180.79" height="183.949" filterUnits="userSpaceOnUse" color-interpolation-filters="sRGB">
<feFlood flood-opacity="0" result="BackgroundImageFix"/>
<feBlend mode="normal" in="SourceGraphic" in2="BackgroundImageFix" result="shape"/>
<feGaussianBlur stdDeviation="11.9169" result="effect1_foregroundBlur_11_94"/>
</filter>
<linearGradient id="paint0_linear_11_94" x1="656.946" y1="24.6707" x2="515.603" y2="637.012" gradientUnits="userSpaceOnUse">
<stop stop-color="#B9FF8D" stop-opacity="0"/>
<stop offset="0.50718" stop-color="#46FF85" stop-opacity="0.12"/>
<stop offset="1" stop-color="#FFE600" stop-opacity="0"/>
</linearGradient>
<linearGradient id="paint1_linear_11_94" x1="454.015" y1="330.579" x2="454.015" y2="898.223" gradientUnits="userSpaceOnUse">
<stop stop-color="#50FF76" stop-opacity="0.38"/>
<stop offset="1" stop-color="#50FFA0" stop-opacity="0"/>
</linearGradient>
<linearGradient id="paint2_linear_11_94" x1="454.015" y1="354.33" x2="454.015" y2="598.603" gradientUnits="userSpaceOnUse">
<stop stop-color="#FFFACE"/>
<stop offset="1" stop-color="white" stop-opacity="0"/>
</linearGradient>
<linearGradient id="paint3_linear_11_94" x1="371.356" y1="173.015" x2="371.356" y2="860.905" gradientUnits="userSpaceOnUse">
<stop stop-color="#A6FFEA" stop-opacity="0.95"/>
<stop offset="1" stop-color="#F6EB4E" stop-opacity="0"/>
</linearGradient>
<linearGradient id="paint4_linear_11_94" x1="664.506" y1="268.233" x2="452.832" y2="855.147" gradientUnits="userSpaceOnUse">
<stop stop-color="#FFFBA0" stop-opacity="0.15"/>
<stop offset="1" stop-color="#3AFFE7" stop-opacity="0.06"/>
</linearGradient>
<linearGradient id="paint5_linear_11_94" x1="91.7901" y1="161.401" x2="505.697" y2="614.402" gradientUnits="userSpaceOnUse">
<stop stop-color="#FDEE67" stop-opacity="0.49"/>
<stop offset="1" stop-color="#44FFE9" stop-opacity="0.29"/>
</linearGradient>
<radialGradient id="paint6_radial_11_94" cx="0" cy="0" r="1" gradientUnits="userSpaceOnUse" gradientTransform="translate(504.202 354.177) rotate(178.317) scale(223.799 355.093)">
<stop stop-color="#EDFFA4" stop-opacity="0.3"/>
<stop offset="1" stop-color="#B2FF50" stop-opacity="0.04"/>
</radialGradient>
<linearGradient id="paint7_linear_11_94" x1="217.671" y1="351.952" x2="497.095" y2="674.932" gradientUnits="userSpaceOnUse">
<stop stop-color="#FEFFD2" stop-opacity="0.31"/>
<stop offset="1" stop-color="#B2FF50" stop-opacity="0.1"/>
</linearGradient>
<linearGradient id="paint8_linear_11_94" x1="456.341" y1="736.223" x2="456.341" y2="801.223" gradientUnits="userSpaceOnUse">
<stop/>
<stop offset="1" stop-color="#151433" stop-opacity="0.87"/>
<stop offset="1" stop-color="#251F27" stop-opacity="0.87"/>
</linearGradient>
<radialGradient id="paint9_radial_11_94" cx="0" cy="0" r="1" gradientUnits="userSpaceOnUse" gradientTransform="translate(370.842 325.223) rotate(70.119) scale(146.794 126.358)">
<stop stop-color="#E8F360"/>
<stop offset="0.420971" stop-color="#F7B34E" stop-opacity="0.990923"/>
<stop offset="0.829897" stop-color="#FFA843"/>
<stop offset="1" stop-color="#89F235"/>
</radialGradient>
<linearGradient id="paint10_linear_11_94" x1="407.148" y1="351.851" x2="407.148" y2="405.523" gradientUnits="userSpaceOnUse">
<stop stop-color="#9E4722"/>
<stop offset="1" stop-color="#BB391C" stop-opacity="0.87"/>
</linearGradient>
<linearGradient id="paint11_linear_11_94" x1="431.208" y1="341.403" x2="431.208" y2="459.416" gradientUnits="userSpaceOnUse">
<stop stop-color="#9E4722"/>
<stop offset="1" stop-color="#BB391C" stop-opacity="0.87"/>
</linearGradient>
<radialGradient id="paint12_radial_11_94" cx="0" cy="0" r="1" gradientUnits="userSpaceOnUse" gradientTransform="translate(456.265 488.214) rotate(64.8675) scale(301.559 359.735)">
<stop stop-color="#F1A42F"/>
<stop offset="0.420971" stop-color="#FCDB69" stop-opacity="0.990923"/>
<stop offset="0.829897" stop-color="#F8B147" stop-opacity="0.77"/>
<stop offset="1" stop-color="#EEAF4F"/>
</radialGradient>
<radialGradient id="paint13_radial_11_94" cx="0" cy="0" r="1" gradientUnits="userSpaceOnUse" gradientTransform="translate(456.391 488.214) rotate(90.8281) scale(282.828 169.306)">
<stop stop-color="#F38B2C"/>
<stop offset="0.420971" stop-color="#FFA681" stop-opacity="0.990923"/>
<stop offset="0.829897" stop-color="#F79A10" stop-opacity="0.77"/>
</radialGradient>
<linearGradient id="paint14_linear_11_94" x1="318.138" y1="482.344" x2="348.184" y2="586.641" gradientUnits="userSpaceOnUse">
<stop stop-color="#FFEB37" stop-opacity="0.71"/>
<stop offset="1" stop-color="#FF7C02" stop-opacity="0.7"/>
</linearGradient>
<linearGradient id="paint15_linear_11_94" x1="339.771" y1="512.426" x2="354.83" y2="566.784" gradientUnits="userSpaceOnUse">
<stop stop-color="white"/>
<stop offset="1" stop-color="#FFFFF8" stop-opacity="0.7"/>
</linearGradient>
<linearGradient id="paint16_linear_11_94" x1="462.617" y1="606.303" x2="462.617" y2="765.703" gradientUnits="userSpaceOnUse">
<stop stop-color="#F8A120"/>
<stop offset="1" stop-color="#A5BB1C" stop-opacity="0.87"/>
</linearGradient>
<linearGradient id="paint17_linear_11_94" x1="370.692" y1="488.151" x2="370.692" y2="607.126" gradientUnits="userSpaceOnUse">
<stop stop-color="#27613E"/>
<stop offset="1" stop-color="#1B213F"/>
</linearGradient>
<linearGradient id="paint18_linear_11_94" x1="392.506" y1="498.69" x2="375.914" y2="614.676" gradientUnits="userSpaceOnUse">
<stop stop-color="#AF6E31"/>
<stop offset="0.558371" stop-color="#E45314" stop-opacity="0.990923"/>
<stop offset="1" stop-color="#FFC700"/>
</linearGradient>
<linearGradient id="paint19_linear_11_94" x1="59.4876" y1="0" x2="59.4876" y2="118.975" gradientUnits="userSpaceOnUse">
<stop stop-color="#27613E"/>
<stop offset="1" stop-color="#1B213F"/>
</linearGradient>
<linearGradient id="paint20_linear_11_94" x1="573.413" y1="498.689" x2="556.821" y2="614.675" gradientUnits="userSpaceOnUse">
<stop stop-color="#9C500A"/>
<stop offset="0.558371" stop-color="#E45314" stop-opacity="0.990923"/>
<stop offset="1" stop-color="#FFC700"/>
</linearGradient>
<linearGradient id="paint21_linear_11_94" x1="459.589" y1="583.042" x2="464.739" y2="617.385" gradientUnits="userSpaceOnUse">
<stop stop-color="#9C500A"/>
<stop offset="1" stop-color="#FF2E00"/>
</linearGradient>
<linearGradient id="paint22_linear_11_94" x1="456.236" y1="567.382" x2="456.236" y2="604.907" gradientUnits="userSpaceOnUse">
<stop stop-color="#1D2B3F"/>
<stop offset="1" stop-color="#1A4A33"/>
</linearGradient>
<linearGradient id="paint23_linear_11_94" x1="551.841" y1="708.223" x2="456.08" y2="736.399" gradientUnits="userSpaceOnUse">
<stop stop-color="#27613E"/>
<stop offset="1" stop-color="#1B213F"/>
</linearGradient>
<linearGradient id="paint24_linear_11_94" x1="542.841" y1="632.723" x2="533.592" y2="746.511" gradientUnits="userSpaceOnUse">
<stop stop-color="#225321"/>
<stop offset="0.558371" stop-color="#E46C14" stop-opacity="0.990923"/>
<stop offset="1" stop-color="#FFC700"/>
</linearGradient>
<linearGradient id="paint25_linear_11_94" x1="542.841" y1="632.723" x2="533.592" y2="746.511" gradientUnits="userSpaceOnUse">
<stop stop-color="#225321"/>
<stop offset="0.558371" stop-color="#E46C14" stop-opacity="0.990923"/>
<stop offset="1" stop-color="#FFC700"/>
</linearGradient>
<linearGradient id="paint26_linear_11_94" x1="542.841" y1="632.723" x2="533.592" y2="746.511" gradientUnits="userSpaceOnUse">
<stop stop-color="#225321"/>
<stop offset="0.558371" stop-color="#E46C14" stop-opacity="0.990923"/>
<stop offset="1" stop-color="#FFC700"/>
</linearGradient>
</defs>
</svg>
